<?xml version="1.0" encoding="iso-8859-1"?>
<!-- Generator: Adobe Illustrator 16.0.0, SVG Export Plug-In . SVG Version: 6.00 Build 0)  -->
<!DOCTYPE svg PUBLIC "-//W3C//DTD SVG 1.1//EN" "http://www.w3.org/Graphics/SVG/1.1/DTD/svg11.dtd">
<svg version="1.1" id="Capa_1" xmlns="http://www.w3.org/2000/svg" xmlns:xlink="http://www.w3.org/1999/xlink" x="0px" y="0px"
	 width="612px" height="612px" viewBox="0 0 612 612" style="enable-background:new 0 0 612 612;" xml:space="preserve">
<g>
	<g>
		<g id="group-14svg">
			<path id="path-1_5_" d="M345.538,612H219.343c-8.038,0-10.416-6.523-10.416-14.57V340h-47.828
				c-8.038,0-10.416-6.523-10.416-14.57V218.571c0-8.047,2.378-14.571,10.416-14.571h57.691
				c-0.058-85.075,14.979-141.883,45.819-173.383C290.944,3.708,322.833,0,353.362,0h89.25c8.037,0,18.705,6.523,18.705,14.571
				v116.576c0,8.047-10.668,14.57-18.705,14.57h-78.367V204h78.367c8.037,0,18.705,6.523,18.705,14.571V325.43
				c0,8.047-10.668,14.57-18.705,14.57h-78.367v257.43C364.235,605.477,353.577,612,345.538,612z M238.04,582.858h97.073V325.43
				c0-8.048,2.379-14.571,10.416-14.571h86.658v-77.717h-86.658c-8.037,0-10.416-6.523-10.416-14.571v-87.424
				c0-8.047,2.379-14.571,10.416-14.571h86.658V29.142h-78.834c-22.521,0-48.197,1.689-67.951,21.871
				c-26.481,27.035-39.053,83.309-37.354,167.267c0.078,3.912-1.417,7.698-4.164,10.494c-2.738,2.795-6.475,4.368-10.396,4.368
				h-53.691v77.717h39.538c8.038,0,18.706,6.523,18.706,14.571V582.858L238.04,582.858z"/>
		</g>
	</g>
	<g>
	</g>
	<g>
	</g>
	<g>
	</g>
	<g>
	</g>
	<g>
	</g>
	<g>
	</g>
	<g>
	</g>
	<g>
	</g>
	<g>
	</g>
	<g>
	</g>
	<g>
	</g>
	<g>
	</g>
	<g>
	</g>
	<g>
	</g>
	<g>
	</g>
</g>
<g>
</g>
<g>
</g>
<g>
</g>
<g>
</g>
<g>
</g>
<g>
</g>
<g>
</g>
<g>
</g>
<g>
</g>
<g>
</g>
<g>
</g>
<g>
</g>
<g>
</g>
<g>
</g>
<g>
</g>
</svg>
