<?xml version="1.0" encoding="iso-8859-1"?>
<!-- Generator: Adobe Illustrator 16.0.0, SVG Export Plug-In . SVG Version: 6.00 Build 0)  -->
<!DOCTYPE svg PUBLIC "-//W3C//DTD SVG 1.1//EN" "http://www.w3.org/Graphics/SVG/1.1/DTD/svg11.dtd">
<svg version="1.1" id="Capa_1" xmlns="http://www.w3.org/2000/svg" xmlns:xlink="http://www.w3.org/1999/xlink" x="0px" y="0px"
	 width="612px" height="612px" viewBox="0 0 612 612" style="enable-background:new 0 0 612 612;" xml:space="preserve">
<g>
	<g>
	</g>
	<g>
	</g>
	<g>
	</g>
	<g>
	</g>
	<g>
	</g>
	<g>
	</g>
	<g>
	</g>
	<g>
	</g>
	<g>
	</g>
	<g>
	</g>
	<g>
	</g>
	<g>
	</g>
	<g>
	</g>
	<g>
	</g>
	<g>
	</g>
</g>
<g>
	<path d="M443.697,204h61.156c14.076,0,25.646-11.416,25.646-25.502v-61.198C530.5,103.213,518.93,92,504.854,92h-61.156
		c-14.076,0-25.197,11.213-25.197,25.299v61.198C418.5,192.584,429.621,204,443.697,204z M448.5,122h51v51h-51V122z"/>
	<path d="M504.854,0H107.333C53.851,0,10.5,43.381,10.5,96.894v418.203C10.5,568.619,53.851,612,107.333,612h397.521
		c53.482,0,96.646-43.381,96.646-96.903V96.894C601.5,43.381,558.336,0,504.854,0z M107.333,31h397.521
		c36.594,0,66.646,29.281,66.646,65.894v128.141c-2-0.41-3.231-1.034-4.744-1.034H41.5V96.894C41.5,60.281,70.74,31,107.333,31z
		 M504.854,581H107.333C70.74,581,41.5,551.72,41.5,515.097V255h525.256c1.513,0,2.744-0.233,4.744-0.643v260.74
		C571.5,551.72,541.447,581,504.854,581z"/>
	<path d="M310.619,272.333c-74.49,0-135.106,60.658-135.106,135.208c0,74.551,60.617,135.198,135.106,135.198
		c74.5,0,135.105-60.647,135.105-135.198C445.725,332.991,385.119,272.333,310.619,272.333z M310.619,512.141
		c-57.631,0-104.528-46.928-104.528-104.6c0-57.681,46.897-104.609,104.528-104.609c57.641,0,104.527,46.928,104.527,104.609
		C415.146,465.213,368.26,512.141,310.619,512.141z"/>
	<path d="M310.619,325.183c-45.379,0-82.297,36.949-82.297,82.358s36.918,82.358,82.297,82.358s82.297-36.949,82.297-82.358
		S355.998,325.183,310.619,325.183z M310.619,459.301c-28.52,0-51.719-23.22-51.719-51.76s23.199-51.759,51.719-51.759
		c28.52,0,51.729,23.219,51.729,51.759S339.139,459.301,310.619,459.301z"/>
</g>
<g>
</g>
<g>
</g>
<g>
</g>
<g>
</g>
<g>
</g>
<g>
</g>
<g>
</g>
<g>
</g>
<g>
</g>
<g>
</g>
<g>
</g>
<g>
</g>
<g>
</g>
<g>
</g>
<g>
</g>
</svg>
